<?xml version="1.0" encoding="utf-8"?>
<!-- Generator: Adobe Illustrator 16.0.0, SVG Export Plug-In . SVG Version: 6.00 Build 0)  -->
<!DOCTYPE svg PUBLIC "-//W3C//DTD SVG 1.1//EN" "http://www.w3.org/Graphics/SVG/1.1/DTD/svg11.dtd">
<svg version="1.1" id="Layer_1" xmlns="http://www.w3.org/2000/svg" xmlns:xlink="http://www.w3.org/1999/xlink" x="0px" y="0px"
	 width="1575.77px" height="480.047px" viewBox="0 230.308 1575.77 480.047" enable-background="new 0 230.308 1575.77 480.047"
	 xml:space="preserve">
<g>
	
		<image overflow="visible" opacity="0.5" width="555" height="255" xlink:href="BEF572F19ED8CCA1.png"  transform="matrix(1 0 0 1 525.0273 379.4878)">
	</image>
	<g>
		<path fill="#EFEFEF" d="M1010.271,478.419L964.33,397.72c-1.941-2.555-4.969-4.051-8.18-4.051H539.893V591.88
			c0,8.051,6.527,14.578,14.578,14.578h484.34c7.224,0,13.082-5.855,13.082-13.082v-77.219c0-2.312-1.038-4.5-2.823-5.965
			L1010.271,478.419z"/>
	</g>
</g>
<g>
	
		<image overflow="visible" opacity="0.5" width="198" height="255" xlink:href="BEF572F19ED8CCA0.png"  transform="matrix(1 0 0 1 882.0273 379.4878)">
	</image>
	<g>
		<path fill="#E2E2E2" d="M1049.068,510.193l-38.802-31.773L964.33,397.72c-1.945-2.551-4.969-4.051-8.18-4.051h-59.668
			l54.465,96.664l38.797,31.773c1.789,1.465,2.824,3.652,2.824,5.965v77.219c0,0.395-0.023,0.781-0.06,1.168h46.302
			c7.223,0,13.082-5.854,13.082-13.082v-77.219C1051.893,513.849,1050.857,511.658,1049.068,510.193z"/>
	</g>
</g>
<g>
	
		<image overflow="visible" opacity="0.5" width="122" height="123" xlink:href="BEF572F19ED8CCAE.png"  transform="matrix(1 0 0 1 920.0273 555.4878)">
	</image>
	<g>
		<path fill="#31363B" d="M1001.814,581.802c-15.504-15.504-40.642-15.504-56.146,0s-15.504,40.643,0,56.146
			c15.504,15.5,40.642,15.5,56.146,0C1017.318,622.443,1017.318,597.306,1001.814,581.802z"/>
	</g>
</g>
<g>
	
		<image overflow="visible" opacity="0.5" width="77" height="77" xlink:href="BEF572F19ED8CCB8.png"  transform="matrix(1 0 0 1 942.0273 578.4878)">
	</image>
	<g>
		<path fill="#E2E2E2" d="M973.748,627.025c-4.582,0-8.891-1.785-12.129-5.023c-6.688-6.688-6.688-17.57,0-24.258
			c3.238-3.238,7.547-5.023,12.129-5.023s8.887,1.785,12.129,5.023c3.238,3.242,5.023,7.551,5.023,12.129
			c0,4.582-1.785,8.891-5.023,12.129C982.635,625.24,978.33,627.025,973.748,627.025z"/>
	</g>
</g>
<g>
	
		<image overflow="visible" opacity="0.5" width="79" height="75" xlink:href="BEF572F19ED8CCB9.png"  transform="matrix(1 0 0 1 1001.0273 516.4878)">
	</image>
	<g>
		<path fill="#EFA335" d="M1051.893,530.892h-28.362c-5.156,0-8.974,4.799-7.81,9.82l3.734,16.125
			c0.84,3.633,4.078,6.207,7.809,6.207h24.629V530.892z"/>
	</g>
</g>
<g>
	
		<image overflow="visible" opacity="0.5" width="429" height="326" xlink:href="BEF572F19ED8CCBA.png"  transform="matrix(1 0 0 1 525.0273 308.4878)">
	</image>
	<g>
		<path fill="#FC4E51" d="M920.705,393.669c2.965,0,5.094-2.855,4.25-5.699l-17.523-59.062c-1.104-3.75-4.551-6.328-8.465-6.328
			H554.471c-8.051,0-14.578,6.527-14.578,14.578V591.88c0,8.051,6.527,14.578,14.578,14.578h297.703V400.962
			c0-4.031,3.266-7.293,7.293-7.293H920.705z"/>
	</g>
</g>
<g>
	
		<image overflow="visible" opacity="0.5" width="110" height="255" xlink:href="BEF572F19ED8CCBB.png"  transform="matrix(1 0 0 1 778.0273 379.4878)">
	</image>
	<g>
		<path fill="#EA3942" d="M793.021,396.525v209.934h59.151V400.962c0-4.031,3.267-7.293,7.293-7.293H795.88
			C794.303,393.669,793.021,394.947,793.021,396.525z"/>
	</g>
</g>
<g>
	
		<image overflow="visible" opacity="0.5" width="129" height="114" xlink:href="BEF572F19ED8CCBC.png"  transform="matrix(1 0 0 1 825.0273 308.4878)">
	</image>
	<g>
		<path fill="#EA3942" d="M924.955,387.97l-17.523-59.062c-1.104-3.75-4.551-6.328-8.465-6.328h-59.147
			c3.909,0,7.354,2.574,8.461,6.328l19.215,64.762h53.211C923.67,393.669,925.799,390.814,924.955,387.97z"/>
	</g>
</g>
<g>
	
		<image overflow="visible" opacity="0.5" width="141" height="107" xlink:href="BEF572F19ED8CCBD.png"  transform="matrix(1 0 0 1 863.0273 409.4878)">
	</image>
	<g>
		<path fill="#33D8DD" d="M877.998,425.63v59.793c0,1.18,0.957,2.137,2.137,2.137h86.57c6.578,0,10.711-7.102,7.453-12.82
			l-28.555-50.168c-0.384-0.668-1.091-1.082-1.859-1.082h-63.609C878.955,423.49,877.998,424.447,877.998,425.63z"/>
	</g>
</g>
<g>
	
		<image overflow="visible" opacity="0.5" width="122" height="123" xlink:href="99799CEBF5559419.png"  transform="matrix(1 0 0 1 564.0273 555.4878)">
	</image>
	<g>
		<circle fill="#31363B" cx="618.035" cy="609.872" r="39.701"/>
	</g>
</g>
<g>
	
		<image overflow="visible" opacity="0.5" width="78" height="77" xlink:href="99799CEBF555941A.png"  transform="matrix(1 0 0 1 586.0273 578.4878)">
	</image>
	<g>
		<path fill="#E2E2E2" d="M618.037,627.025c-4.582,0-8.887-1.785-12.129-5.023c-6.688-6.688-6.688-17.57,0-24.258
			c3.242-3.238,7.547-5.023,12.129-5.023s8.887,1.785,12.129,5.023c3.242,3.242,5.023,7.551,5.023,12.129
			c0,4.582-1.785,8.891-5.023,12.129S622.619,627.025,618.037,627.025z"/>
	</g>
</g>
<g>
	
		<image overflow="visible" opacity="0.5" width="291" height="171" xlink:href="99799CEBF555941B.png"  transform="matrix(1 0 0 1 557.0273 381.4878)">
	</image>
	<g>
		<rect x="571.846" y="396.333" fill="#F3E8D7" width="248.164" height="127.906"/>
	</g>
</g>
<g>
	
		<image overflow="visible" opacity="0.5" width="102" height="171" xlink:href="99799CEBF555941C.png"  transform="matrix(1 0 0 1 746.0273 381.4878)">
	</image>
	<g>
		<rect x="760.686" y="396.333" fill="#E5D8C6" width="59.324" height="127.906"/>
	</g>
</g>
<g>
	
		<image overflow="visible" opacity="0.5" width="96" height="83" xlink:href="99799CEBF5559418.png"  transform="matrix(1 0 0 1 547.0273 389.4878)">
	</image>
	<g>
		<path fill="#EFA335" d="M587.959,444.443c-14.625,0-26.484-11.855-26.484-26.484V404.06h52.974v13.898
			C614.447,432.587,602.588,444.443,587.959,444.443z"/>
	</g>
</g>
<g>
	
		<image overflow="visible" opacity="0.5" width="96" height="83" xlink:href="99799CEBF5559416.png"  transform="matrix(1 0 0 1 600.0273 389.4878)">
	</image>
	<g>
		<path fill="#FFC064" d="M640.932,444.443c-14.629,0-26.483-11.855-26.483-26.484V404.06h52.973v13.898
			C667.416,432.587,655.561,444.443,640.932,444.443z"/>
	</g>
</g>
<g>
	
		<image overflow="visible" opacity="0.5" width="96" height="83" xlink:href="99799CEBF5559417.png"  transform="matrix(1 0 0 1 653.0273 389.4878)">
	</image>
	<g>
		<path fill="#EFA335" d="M693.904,444.443c-14.629,0-26.488-11.855-26.488-26.484V404.06h52.973v13.898
			C720.389,432.587,708.533,444.443,693.904,444.443z"/>
	</g>
</g>
<g>
	
		<image overflow="visible" opacity="0.5" width="96" height="83" xlink:href="99799CEBF5559408.png"  transform="matrix(1 0 0 1 706.0273 389.4878)">
	</image>
	<g>
		<path fill="#FFC064" d="M746.877,444.443c-14.629,0-26.488-11.855-26.488-26.484V404.06h52.974v13.898
			C773.361,432.587,761.502,444.443,746.877,444.443z"/>
	</g>
</g>
<g>
	
		<image overflow="visible" opacity="0.5" width="96" height="83" xlink:href="99799CEBF5559409.png"  transform="matrix(1 0 0 1 759.0273 389.4878)">
	</image>
	<g>
		<path fill="#EFA335" d="M799.846,444.443c-14.629,0-26.483-11.855-26.483-26.484V404.06h52.973v13.898
			C826.334,432.587,814.475,444.443,799.846,444.443z"/>
	</g>
</g>
<g>
	
		<image overflow="visible" opacity="0.5" width="308" height="84" xlink:href="99799CEBF555940A.png"  transform="matrix(1 0 0 1 547.0273 348.4878)">
	</image>
	<g>
		<path fill="#FD8F31" d="M811.689,367.326c-1.017-2.555-3.492-4.234-6.242-4.234h-223.09c-2.75,0-5.224,1.681-6.242,4.234
			l-14.642,36.734h264.859L811.689,367.326z"/>
	</g>
</g>
<g>
	
		<image overflow="visible" opacity="0.5" width="312" height="71" xlink:href="99799CEBF555943B.png"  transform="matrix(1 0 0 1 547.0273 502.4878)">
	</image>
	<g>
		<path fill="#DFEDE7" d="M565.615,517.255h260.406c2.336,0,4.227,1.891,4.227,4.223v18.898c0,2.336-1.891,4.227-4.227,4.227
			H565.615c-2.332,0-4.228-1.891-4.228-4.227v-18.898C561.389,519.146,563.283,517.255,565.615,517.255z"/>
	</g>
</g>
<g>
	
		<image overflow="visible" opacity="0.5" width="103" height="71" xlink:href="99799CEBF5559438.png"  transform="matrix(1 0 0 1 756.0273 502.4878)">
	</image>
	<g>
		<path fill="#CEDDD6" d="M826.025,517.255h-55.099v27.348h55.099c2.332,0,4.223-1.891,4.223-4.223v-18.902
			C830.248,519.146,828.357,517.255,826.025,517.255z"/>
	</g>
</g>
</svg>
