<?xml version="1.0" encoding="utf-8"?>
<!-- Generator: Adobe Illustrator 16.0.0, SVG Export Plug-In . SVG Version: 6.00 Build 0)  -->
<!DOCTYPE svg PUBLIC "-//W3C//DTD SVG 1.1//EN" "http://www.w3.org/Graphics/SVG/1.1/DTD/svg11.dtd">
<svg version="1.1" id="Layer_1" xmlns="http://www.w3.org/2000/svg" xmlns:xlink="http://www.w3.org/1999/xlink" x="0px" y="0px"
	 width="1257.055px" height="467.976px" viewBox="115.495 259.604 1257.055 467.976"
	 enable-background="new 115.495 259.604 1257.055 467.976" xml:space="preserve">
<g>
	
		<image overflow="visible" opacity="0.75" width="543" height="358" xlink:href="BEF572F19ED8CCA4.png"  transform="matrix(1 0 0 1 531.5 314.5)">
	</image>
	<g>
		<g>
			<path fill="#EFEFEF" d="M1010.271,478.419L964.33,397.72c-1.941-2.555-4.969-4.051-8.18-4.051H539.893v198.211
				c0,8.051,6.527,14.578,14.578,14.578h484.34c7.223,0,13.082-5.855,13.082-13.082v-77.219c0-2.312-1.039-4.5-2.824-5.965
				L1010.271,478.419z"/>
			<path fill="#E2E2E2" d="M1049.068,510.193l-38.801-31.774L964.33,397.72c-1.945-2.551-4.969-4.051-8.18-4.051h-59.668
				l54.465,96.664l38.797,31.774c1.789,1.465,2.824,3.652,2.824,5.965v77.219c0,0.395-0.023,0.781-0.059,1.168h46.301
				c7.223,0,13.082-5.855,13.082-13.082v-77.219C1051.893,513.85,1050.857,511.658,1049.068,510.193z"/>
			<path fill="#31363B" d="M1001.814,581.803c-15.504-15.504-40.641-15.504-56.145,0s-15.504,40.641,0,56.145
				c15.504,15.5,40.641,15.5,56.145,0C1017.318,622.443,1017.318,597.307,1001.814,581.803z"/>
			<path fill="#E2E2E2" d="M973.748,627.025c-4.582,0-8.891-1.785-12.129-5.023c-6.688-6.688-6.688-17.57,0-24.258
				c3.238-3.238,7.547-5.023,12.129-5.023s8.887,1.785,12.129,5.023c3.238,3.242,5.023,7.551,5.023,12.129
				c0,4.582-1.785,8.891-5.023,12.129C982.635,625.24,978.33,627.025,973.748,627.025z"/>
			<path fill="#EFA335" d="M1051.893,530.893h-28.363c-5.156,0-8.973,4.797-7.809,9.82l3.734,16.125
				c0.84,3.633,4.078,6.207,7.809,6.207h24.629V530.893z"/>
			<path fill="#FC4E51" d="M920.705,393.669c2.965,0,5.094-2.855,4.25-5.699l-17.523-59.062c-1.105-3.75-4.551-6.328-8.465-6.328
				H554.471c-8.051,0-14.578,6.527-14.578,14.578v254.723c0,8.051,6.527,14.578,14.578,14.578h297.703V400.962
				c0-4.031,3.266-7.293,7.293-7.293H920.705z"/>
			<path fill="#EA3942" d="M793.021,396.525v209.934h59.152V400.962c0-4.031,3.266-7.293,7.293-7.293h-63.586
				C794.303,393.669,793.021,394.947,793.021,396.525z"/>
			<path fill="#EA3942" d="M924.955,387.97l-17.523-59.062c-1.105-3.75-4.551-6.328-8.465-6.328h-59.148
				c3.91,0,7.355,2.574,8.461,6.328l19.215,64.762h53.211C923.67,393.669,925.799,390.814,924.955,387.97z"/>
			<path fill="#33D8DD" d="M877.998,425.63v59.793c0,1.18,0.957,2.137,2.137,2.137h86.57c6.578,0,10.711-7.102,7.453-12.82
				l-28.555-50.168c-0.383-0.668-1.09-1.082-1.859-1.082h-63.609C878.955,423.49,877.998,424.447,877.998,425.63z"/>
			<path fill="#31363B" d="M646.107,581.799c-15.504-15.504-40.641-15.504-56.145,0s-15.504,40.641,0,56.145s40.641,15.504,56.145,0
				S661.611,597.303,646.107,581.799z"/>
			<path fill="#E2E2E2" d="M618.037,627.025c-4.582,0-8.887-1.785-12.129-5.023c-6.688-6.688-6.688-17.57,0-24.258
				c3.242-3.238,7.547-5.023,12.129-5.023s8.887,1.785,12.129,5.023c3.242,3.242,5.023,7.551,5.023,12.129
				c0,4.582-1.785,8.891-5.023,12.129S622.619,627.025,618.037,627.025z"/>
			<path fill="#F3E8D7" d="M571.846,396.333H820.01V524.24H571.846V396.333z"/>
			<path fill="#E5D8C6" d="M760.686,396.333h59.324V524.24h-59.324V396.333z"/>
			<path fill="#EFA335" d="M587.959,444.443c-14.625,0-26.484-11.855-26.484-26.484V404.06h52.973v13.898
				C614.447,432.587,602.588,444.443,587.959,444.443z"/>
			<path fill="#FFC064" d="M640.932,444.443c-14.629,0-26.484-11.855-26.484-26.484V404.06h52.973v13.898
				C667.416,432.587,655.561,444.443,640.932,444.443z"/>
			<path fill="#EFA335" d="M693.904,444.443c-14.629,0-26.488-11.855-26.488-26.484V404.06h52.973v13.898
				C720.389,432.587,708.533,444.443,693.904,444.443z"/>
			<path fill="#FFC064" d="M746.877,444.443c-14.629,0-26.488-11.855-26.488-26.484V404.06h52.973v13.898
				C773.361,432.587,761.502,444.443,746.877,444.443z"/>
			<path fill="#EFA335" d="M799.846,444.443c-14.629,0-26.484-11.855-26.484-26.484V404.06h52.973v13.898
				C826.334,432.587,814.475,444.443,799.846,444.443z"/>
			<path fill="#FD8F31" d="M811.689,367.326c-1.016-2.555-3.492-4.234-6.242-4.234h-223.09c-2.75,0-5.223,1.68-6.242,4.234
				l-14.641,36.734h264.859L811.689,367.326z"/>
			<path fill="#DFEDE7" d="M565.615,517.256h260.406c2.336,0,4.227,1.891,4.227,4.223v18.898c0,2.336-1.891,4.227-4.227,4.227
				H565.615c-2.332,0-4.227-1.891-4.227-4.227v-18.898C561.389,519.146,563.283,517.256,565.615,517.256z"/>
			<path fill="#CEDDD6" d="M826.025,517.256h-55.098v27.348h55.098c2.332,0,4.223-1.891,4.223-4.223v-18.902
				C830.248,519.146,828.357,517.256,826.025,517.256z"/>
		</g>
	</g>
</g>
</svg>
